<mxfile host="app.diagrams.net" agent="Mozilla/5.0 (Windows NT 10.0; Win64; x64; rv:134.0) Gecko/20100101 Firefox/134.0" version="26.0.7">
  <diagram name="Page-1" id="7KeMxSSokx543TCdu_rG">
    <mxGraphModel dx="607" dy="746" grid="1" gridSize="10" guides="1" tooltips="1" connect="1" arrows="1" fold="1" page="1" pageScale="1" pageWidth="827" pageHeight="1169" math="0" shadow="0">
      <root>
        <mxCell id="0" />
        <mxCell id="1" parent="0" />
        <mxCell id="6BX3vvs21_c2qGaaz4rj-3" value="" style="edgeStyle=orthogonalEdgeStyle;rounded=0;orthogonalLoop=1;jettySize=auto;html=1;" parent="1" source="6BX3vvs21_c2qGaaz4rj-1" target="6BX3vvs21_c2qGaaz4rj-2" edge="1">
          <mxGeometry relative="1" as="geometry" />
        </mxCell>
        <mxCell id="6BX3vvs21_c2qGaaz4rj-1" value="Начало" style="ellipse;whiteSpace=wrap;html=1;" parent="1" vertex="1">
          <mxGeometry x="1051" y="70" width="120" height="80" as="geometry" />
        </mxCell>
        <mxCell id="6BX3vvs21_c2qGaaz4rj-5" value="" style="edgeStyle=orthogonalEdgeStyle;rounded=0;orthogonalLoop=1;jettySize=auto;html=1;" parent="1" source="6BX3vvs21_c2qGaaz4rj-2" target="6BX3vvs21_c2qGaaz4rj-4" edge="1">
          <mxGeometry relative="1" as="geometry" />
        </mxCell>
        <mxCell id="6BX3vvs21_c2qGaaz4rj-2" value="Задача создана" style="rounded=0;whiteSpace=wrap;html=1;" parent="1" vertex="1">
          <mxGeometry x="1051" y="190" width="120" height="60" as="geometry" />
        </mxCell>
        <mxCell id="6BX3vvs21_c2qGaaz4rj-7" value="" style="edgeStyle=orthogonalEdgeStyle;rounded=0;orthogonalLoop=1;jettySize=auto;html=1;entryX=0.5;entryY=0;entryDx=0;entryDy=0;" parent="1" source="6BX3vvs21_c2qGaaz4rj-4" target="6BX3vvs21_c2qGaaz4rj-22" edge="1">
          <mxGeometry relative="1" as="geometry">
            <mxPoint x="1311" y="400" as="targetPoint" />
          </mxGeometry>
        </mxCell>
        <mxCell id="CkW0iGRDvunpIVwDZcKB-7" style="edgeStyle=orthogonalEdgeStyle;rounded=0;orthogonalLoop=1;jettySize=auto;html=1;entryX=0;entryY=0.5;entryDx=0;entryDy=0;" edge="1" parent="1" source="6BX3vvs21_c2qGaaz4rj-4" target="CkW0iGRDvunpIVwDZcKB-2">
          <mxGeometry relative="1" as="geometry">
            <Array as="points">
              <mxPoint x="960" y="330" />
              <mxPoint x="960" y="985" />
            </Array>
          </mxGeometry>
        </mxCell>
        <mxCell id="6BX3vvs21_c2qGaaz4rj-4" value="Задача отменена" style="rhombus;whiteSpace=wrap;html=1;" parent="1" vertex="1">
          <mxGeometry x="1051" y="290" width="120" height="80" as="geometry" />
        </mxCell>
        <mxCell id="6BX3vvs21_c2qGaaz4rj-11" value="Нет" style="text;html=1;align=center;verticalAlign=middle;resizable=0;points=[];autosize=1;strokeColor=none;fillColor=none;" parent="1" vertex="1">
          <mxGeometry x="1180" y="300" width="40" height="30" as="geometry" />
        </mxCell>
        <mxCell id="6BX3vvs21_c2qGaaz4rj-16" value="Да" style="text;html=1;align=center;verticalAlign=middle;resizable=0;points=[];autosize=1;strokeColor=none;fillColor=none;" parent="1" vertex="1">
          <mxGeometry x="990" y="300" width="40" height="30" as="geometry" />
        </mxCell>
        <mxCell id="6BX3vvs21_c2qGaaz4rj-19" value="Конец" style="ellipse;whiteSpace=wrap;html=1;" parent="1" vertex="1">
          <mxGeometry x="1181" y="1050" width="120" height="80" as="geometry" />
        </mxCell>
        <mxCell id="6BX3vvs21_c2qGaaz4rj-24" value="" style="edgeStyle=orthogonalEdgeStyle;rounded=0;orthogonalLoop=1;jettySize=auto;html=1;" parent="1" source="6BX3vvs21_c2qGaaz4rj-22" target="6BX3vvs21_c2qGaaz4rj-23" edge="1">
          <mxGeometry relative="1" as="geometry" />
        </mxCell>
        <mxCell id="6BX3vvs21_c2qGaaz4rj-22" value="Задача открыта" style="rounded=0;whiteSpace=wrap;html=1;" parent="1" vertex="1">
          <mxGeometry x="1190" y="370" width="120" height="60" as="geometry" />
        </mxCell>
        <mxCell id="6BX3vvs21_c2qGaaz4rj-26" value="" style="edgeStyle=orthogonalEdgeStyle;rounded=0;orthogonalLoop=1;jettySize=auto;html=1;" parent="1" source="6BX3vvs21_c2qGaaz4rj-23" target="6BX3vvs21_c2qGaaz4rj-25" edge="1">
          <mxGeometry relative="1" as="geometry" />
        </mxCell>
        <mxCell id="CkW0iGRDvunpIVwDZcKB-9" style="edgeStyle=orthogonalEdgeStyle;rounded=0;orthogonalLoop=1;jettySize=auto;html=1;entryX=0;entryY=0.5;entryDx=0;entryDy=0;" edge="1" parent="1" source="6BX3vvs21_c2qGaaz4rj-23" target="6BX3vvs21_c2qGaaz4rj-79">
          <mxGeometry relative="1" as="geometry">
            <Array as="points">
              <mxPoint x="1140" y="515" />
              <mxPoint x="1140" y="885" />
            </Array>
          </mxGeometry>
        </mxCell>
        <mxCell id="6BX3vvs21_c2qGaaz4rj-23" value="Задача отменена" style="rhombus;whiteSpace=wrap;html=1;" parent="1" vertex="1">
          <mxGeometry x="1190" y="475" width="120" height="80" as="geometry" />
        </mxCell>
        <mxCell id="6BX3vvs21_c2qGaaz4rj-48" value="" style="edgeStyle=orthogonalEdgeStyle;rounded=0;orthogonalLoop=1;jettySize=auto;html=1;" parent="1" source="6BX3vvs21_c2qGaaz4rj-25" target="6BX3vvs21_c2qGaaz4rj-47" edge="1">
          <mxGeometry relative="1" as="geometry" />
        </mxCell>
        <mxCell id="6BX3vvs21_c2qGaaz4rj-25" value="Задача в процессе" style="whiteSpace=wrap;html=1;" parent="1" vertex="1">
          <mxGeometry x="1390" y="485" width="120" height="60" as="geometry" />
        </mxCell>
        <mxCell id="6BX3vvs21_c2qGaaz4rj-29" value="Нет" style="text;html=1;align=center;verticalAlign=middle;resizable=0;points=[];autosize=1;strokeColor=none;fillColor=none;" parent="1" vertex="1">
          <mxGeometry x="1320" y="485" width="40" height="30" as="geometry" />
        </mxCell>
        <mxCell id="6BX3vvs21_c2qGaaz4rj-34" value="Да" style="text;html=1;align=center;verticalAlign=middle;resizable=0;points=[];autosize=1;strokeColor=none;fillColor=none;" parent="1" vertex="1">
          <mxGeometry x="1140" y="485" width="40" height="30" as="geometry" />
        </mxCell>
        <mxCell id="6BX3vvs21_c2qGaaz4rj-54" value="" style="edgeStyle=orthogonalEdgeStyle;rounded=0;orthogonalLoop=1;jettySize=auto;html=1;" parent="1" source="6BX3vvs21_c2qGaaz4rj-47" edge="1">
          <mxGeometry relative="1" as="geometry">
            <mxPoint x="1570" y="680" as="targetPoint" />
          </mxGeometry>
        </mxCell>
        <mxCell id="CkW0iGRDvunpIVwDZcKB-10" style="edgeStyle=orthogonalEdgeStyle;rounded=0;orthogonalLoop=1;jettySize=auto;html=1;entryX=0;entryY=0.5;entryDx=0;entryDy=0;" edge="1" parent="1" source="6BX3vvs21_c2qGaaz4rj-47" target="6BX3vvs21_c2qGaaz4rj-60">
          <mxGeometry relative="1" as="geometry">
            <Array as="points">
              <mxPoint x="1350" y="620" />
              <mxPoint x="1350" y="835" />
            </Array>
          </mxGeometry>
        </mxCell>
        <mxCell id="6BX3vvs21_c2qGaaz4rj-47" value="Задача отменена" style="rhombus;whiteSpace=wrap;html=1;" parent="1" vertex="1">
          <mxGeometry x="1390" y="580" width="120" height="80" as="geometry" />
        </mxCell>
        <mxCell id="CkW0iGRDvunpIVwDZcKB-15" style="edgeStyle=orthogonalEdgeStyle;rounded=0;orthogonalLoop=1;jettySize=auto;html=1;entryX=1;entryY=0.5;entryDx=0;entryDy=0;" edge="1" parent="1" source="6BX3vvs21_c2qGaaz4rj-55" target="6BX3vvs21_c2qGaaz4rj-60">
          <mxGeometry relative="1" as="geometry">
            <mxPoint x="1550" y="840" as="targetPoint" />
            <Array as="points">
              <mxPoint x="1570" y="835" />
            </Array>
          </mxGeometry>
        </mxCell>
        <mxCell id="6BX3vvs21_c2qGaaz4rj-55" value="Задача выполнена" style="whiteSpace=wrap;html=1;" parent="1" vertex="1">
          <mxGeometry x="1510" y="680" width="120" height="60" as="geometry" />
        </mxCell>
        <mxCell id="6BX3vvs21_c2qGaaz4rj-56" value="Нет" style="text;html=1;align=center;verticalAlign=middle;resizable=0;points=[];autosize=1;strokeColor=none;fillColor=none;" parent="1" vertex="1">
          <mxGeometry x="1520" y="585" width="40" height="30" as="geometry" />
        </mxCell>
        <mxCell id="6BX3vvs21_c2qGaaz4rj-82" style="edgeStyle=orthogonalEdgeStyle;rounded=0;orthogonalLoop=1;jettySize=auto;html=1;entryX=1;entryY=0.5;entryDx=0;entryDy=0;" parent="1" source="6BX3vvs21_c2qGaaz4rj-60" target="6BX3vvs21_c2qGaaz4rj-79" edge="1">
          <mxGeometry relative="1" as="geometry">
            <Array as="points">
              <mxPoint x="1465" y="885" />
            </Array>
          </mxGeometry>
        </mxCell>
        <mxCell id="6BX3vvs21_c2qGaaz4rj-60" value="" style="ellipse;whiteSpace=wrap;html=1;" parent="1" vertex="1">
          <mxGeometry x="1450" y="820" width="29" height="30" as="geometry" />
        </mxCell>
        <mxCell id="6BX3vvs21_c2qGaaz4rj-63" value="Да" style="text;html=1;align=center;verticalAlign=middle;resizable=0;points=[];autosize=1;strokeColor=none;fillColor=none;" parent="1" vertex="1">
          <mxGeometry x="1340" y="585" width="40" height="30" as="geometry" />
        </mxCell>
        <mxCell id="CkW0iGRDvunpIVwDZcKB-4" style="edgeStyle=orthogonalEdgeStyle;rounded=0;orthogonalLoop=1;jettySize=auto;html=1;entryX=0.5;entryY=0;entryDx=0;entryDy=0;" edge="1" parent="1" source="6BX3vvs21_c2qGaaz4rj-79" target="CkW0iGRDvunpIVwDZcKB-2">
          <mxGeometry relative="1" as="geometry" />
        </mxCell>
        <mxCell id="6BX3vvs21_c2qGaaz4rj-79" value="" style="ellipse;whiteSpace=wrap;html=1;" parent="1" vertex="1">
          <mxGeometry x="1226" y="870" width="30" height="30" as="geometry" />
        </mxCell>
        <mxCell id="CkW0iGRDvunpIVwDZcKB-6" style="edgeStyle=orthogonalEdgeStyle;rounded=0;orthogonalLoop=1;jettySize=auto;html=1;" edge="1" parent="1" source="CkW0iGRDvunpIVwDZcKB-2" target="6BX3vvs21_c2qGaaz4rj-19">
          <mxGeometry relative="1" as="geometry" />
        </mxCell>
        <mxCell id="CkW0iGRDvunpIVwDZcKB-2" value="" style="ellipse;whiteSpace=wrap;html=1;" vertex="1" parent="1">
          <mxGeometry x="1226" y="970" width="30" height="30" as="geometry" />
        </mxCell>
      </root>
    </mxGraphModel>
  </diagram>
</mxfile>
